# xmcd
#
# Track frame offsets: 
#        150
#        18900
#        41917
#        70282
#        91580
#        113620
#        137042
#        163165
#
# Disc length: 2516 seconds
#
# Revision: 2
# Processed by: cddbd v1.5.2PL0 Copyright (c) Steve Scherf et al.
# Submitted via: ExactAudioCopy v1.5
#
DISCID=6209d208
DTITLE=Wynton Marsalis - Hot House Flowers
DYEAR=1984
DGENRE=Jazz
TTITLE0=Stardust
TTITLE1=Lazy Afternoon
TTITLE2=For All We Know
TTITLE3=When You Wish Upon a Star
TTITLE4=Django
TTITLE5=Melancholia
TTITLE6=Hot House Flowers
TTITLE7=I'm Confessin' (That I Love You)
EXTD=
EXTT0=
EXTT1=
EXTT2=
EXTT3=
EXTT4=
EXTT5=
EXTT6=
EXTT7=
PLAYORDER=
